<?xml version="1.0" encoding="utf-8"?>
<!-- Generator: Adobe Illustrator 26.4.1, SVG Export Plug-In . SVG Version: 6.00 Build 0)  -->
<svg version="1.1" id="fertilizerButton" xmlns="http://www.w3.org/2000/svg" xmlns:xlink="http://www.w3.org/1999/xlink" x="0px"
	 y="0px" viewBox="0 0 1125 2436" style="enable-background:new 0 0 1125 2436;" xml:space="preserve">
<style type="text/css">
	.st0{fill:#FAEBD4;stroke:#AD9A7E;stroke-width:8;stroke-miterlimit:10;}
	.st1{fill:#FAEBD4;stroke:#AD9A7E;stroke-width:10;stroke-miterlimit:10;}
	.st2{fill:#5D8F6E;stroke:#3F6C4E;stroke-width:4.3688;stroke-miterlimit:10;}
	.st3{fill:#356043;stroke:#1A3623;stroke-width:4;stroke-miterlimit:10;}
</style>
<path id="bag_00000181775130365679275840000008737631883623777961_" class="st0" d="M471.57,1109.95h183.44l-13.38,72.43
	c0,0,10.31,73.27,7.09,88.18c5.03,12.78,8.41,28.66,6.3,37.79c4.76,6.2,4.28,12.5,0,14.96c-4.28,2.46-178.11,2.47-183.44,0
	c-5.33-2.47-5.88-7.94,0-14.96c-2.04-14.53,4.81-26.79,9.45-38.58c-3.39-12.31,3.65-73.89,6.06-86.31L471.57,1109.95z"/>
<circle id="circle" class="st1" cx="562.89" cy="1224.39" r="53.34"/>
<path id="leafLight" class="st2" d="M551.69,1193.12c0,0-31.69,52.89,0,52.89C583.38,1246.02,551.69,1193.12,551.69,1193.12z"/>
<path id="leafDark" class="st3" d="M601.31,1230.85c0,0-59.82-20.76-52.64,12.13S601.31,1230.85,601.31,1230.85z"/>
</svg>
