<?xml version="1.0" encoding="utf-8"?>
<!-- Generator: Adobe Illustrator 26.4.1, SVG Export Plug-In . SVG Version: 6.00 Build 0)  -->
<svg version="1.1" id="rainButton" xmlns="http://www.w3.org/2000/svg" xmlns:xlink="http://www.w3.org/1999/xlink" x="0px" y="0px"
	 viewBox="0 0 1125 2436" style="enable-background:new 0 0 1125 2436;" xml:space="preserve">
<style type="text/css">
	.st0{fill:#496D8F;stroke:#3A4A58;stroke-width:10;stroke-miterlimit:10;}
	.st1{fill:#496D8F;stroke:#3A4A58;stroke-width:6;stroke-miterlimit:10;}
	.st2{fill:#496D8F;stroke:#3A4A58;stroke-width:7;stroke-miterlimit:10;}
	.st3{fill:#496D8F;stroke:#3A4A58;stroke-width:9;stroke-miterlimit:10;}
</style>
<path id="cloud" class="st0" d="M494.86,1172.62c-78.83-6.5-44.42,107.34,20.44,60.35c29.18,30.99,51.79,25.39,70.27,6.8
	c16.73,12.19,27.34,10.19,36.95-6.07c37.01,35.09,87.23-40.76,16.66-52.88c0-17.09-25.67-79.31-88.38-32.6
	C542.88,1142.21,505.47,1136.31,494.86,1172.62z"/>
<path id="drop1" class="st1" d="M588.36,1254.96c0,0-18.79,29.75,0,29.75S588.36,1254.96,588.36,1254.96z"/>
<path id="drop2" class="st2" d="M618.5,1280.01c0,0-31.7,50.1,0,50.1C650.21,1330.12,618.5,1280.01,618.5,1280.01z"/>
<path id="drop3" class="st3" d="M550.4,1269.84c0,0-33.66,53.62,0,54.02C584.06,1324.24,550.4,1269.84,550.4,1269.84z"/>
<path id="drop4" class="st1" d="M507.49,1254.96c0,0-19,31.72,0,31.72C526.49,1286.68,507.49,1254.96,507.49,1254.96z"/>
</svg>
